<svg width="1920" height="164" viewBox="0 0 1920 164" fill="none" xmlns="http://www.w3.org/2000/svg">
<path d="M30.2905 159.679V161H-17.7056V159.679L0.788313 140.745L39.0971 27.1395L35.7946 17.2321V15.9111L65.0766 6.00364L115.715 158.578L130.686 159.679V161H63.0951V159.679L82.91 158.578L65.7371 106.839H14.4386L2.98997 140.745L30.2905 159.679ZM15.3192 104.638H64.8564L40.1979 30.442L15.3192 104.638ZM257.632 161H137.201V159.679L156.796 158.578V13.7094L137.201 12.6086V11.2876H208.315V12.6086L188.72 13.7094V158.798H234.074L256.311 108.16H257.632V161ZM291.207 161V159.679L310.802 158.578V13.4893H284.382L262.365 60.8248H261.044V11.2876H392.483V60.8248H391.162L369.145 13.4893H342.726V158.578L362.32 159.679V161H291.207ZM432.78 159.679V161H384.784V159.679L403.278 140.745L441.587 27.1395L438.284 17.2321V15.9111L467.566 6.00364L518.204 158.578L533.175 159.679V161H465.585V159.679L485.4 158.578L468.227 106.839H416.928L405.48 140.745L432.78 159.679ZM417.809 104.638H467.346L442.688 30.442L417.809 104.638ZM675.153 161H601.397V159.679L620.992 158.578V13.7094L601.397 12.6086V11.2876H676.694C715.443 11.2876 748.468 42.5511 748.468 86.1438C748.468 129.737 714.783 161 675.153 161ZM676.694 158.798C702.233 158.798 713.682 145.588 713.682 86.1438C713.682 26.6992 702.233 13.4893 676.694 13.4893H652.916V158.798H676.694ZM762.638 55.9812L761.977 54.2198C769.903 51.3577 776.288 46.2939 780.911 41.0099L766.38 1.60034V0.27935H800.946C798.084 26.479 783.553 47.6149 762.638 55.9812ZM911.927 161V159.679L931.521 158.578V13.4893H905.102L883.085 60.8248H881.764V11.2876H1013.2V60.8248H1011.88L989.865 13.4893H963.445V158.578L983.04 159.679V161H911.927ZM1053.5 159.679V161H1005.5V159.679L1024 140.745L1062.31 27.1395L1059 17.2321V15.9111L1088.29 6.00364L1138.92 158.578L1153.9 159.679V161H1086.3V159.679L1106.12 158.578L1088.95 106.839H1037.65L1026.2 140.745L1053.5 159.679ZM1038.53 104.638H1088.07L1063.41 30.442L1038.53 104.638ZM1286.78 161H1285.46L1257.72 148.671C1250.67 159.019 1239.66 163.202 1225.79 163.202C1185.94 163.202 1154.9 130.397 1154.9 86.1438C1154.9 46.2939 1185.28 9.08595 1222.49 9.08595C1236.58 9.08595 1247.37 15.0304 1257.72 26.6992L1275.11 11.2876H1276.43L1280.83 66.9894L1279.29 67.4298L1268.94 48.0552C1257.72 27.1395 1242.96 11.2876 1222.93 11.2876C1201.79 11.2876 1189.68 24.2774 1189.68 86.1438C1189.68 147.13 1198.71 160.56 1227.77 160.56C1237.24 160.56 1249.79 157.698 1255.95 146.689V93.8496L1226.67 92.7488V91.4278L1286.78 90.5471V161ZM1350.21 159.679V161H1302.21V159.679L1320.7 140.745L1359.01 27.1395L1355.71 17.2321V15.9111L1384.99 6.00364L1435.63 158.578L1450.6 159.679V161H1383.01V159.679L1402.83 158.578L1385.65 106.839H1334.36L1322.91 140.745L1350.21 159.679ZM1335.24 104.638H1384.77L1360.11 30.442L1335.24 104.638ZM1467.11 159.679L1486.71 158.578V94.5101L1439.81 13.7094L1430.78 12.6086V11.2876H1493.09V12.6086L1473.94 13.7094L1517.75 91.2076L1550.11 29.121L1526.34 12.6086V11.2876H1574.77V12.6086L1552.54 29.121L1518.63 94.5101V158.578L1538.22 159.679V161H1467.11V159.679ZM1611.55 161V159.679L1631.15 158.578V13.4893H1604.73L1582.71 60.8248H1581.39V11.2876H1712.83V60.8248H1711.51L1689.49 13.4893H1663.07V158.578L1682.67 159.679V161H1611.55ZM1753.13 159.679V161H1705.13V159.679L1723.62 140.745L1761.93 27.1395L1758.63 17.2321V15.9111L1787.91 6.00364L1838.55 158.578L1853.52 159.679V161H1785.93V159.679L1805.75 158.578L1788.57 106.839H1737.27L1725.83 140.745L1753.13 159.679ZM1738.16 104.638H1787.69L1763.03 30.442L1738.16 104.638ZM1870.03 159.679L1889.63 158.578V94.5101L1842.73 13.7094L1833.7 12.6086V11.2876H1896.01V12.6086L1876.86 13.7094L1920.67 91.2076L1953.03 29.121L1929.26 12.6086V11.2876H1977.69V12.6086L1955.46 29.121L1921.55 94.5101V158.578L1941.14 159.679V161H1870.03V159.679Z" fill="#F4F4F4"/>
</svg>
