<svg width="1920" height="299" viewBox="0 0 1920 299" fill="none" xmlns="http://www.w3.org/2000/svg">
<mask id="mask0_46_1244" style="mask-type:luminance" maskUnits="userSpaceOnUse" x="0" y="0" width="1920" height="300">
<path d="M1920 0H0V300H1920V0Z" fill="white"/>
</mask>
<g mask="url(#mask0_46_1244)">
<path d="M582.879 238.08C525.119 238.08 465.919 235.8 409.439 233.4C391.679 232.64 373.599 231.84 355.999 231.08C254.559 226.64 150.239 222.12 46.8795 220.96C42.2395 221.04 37.7595 221.12 33.1195 221.16C2.71945 221.52 -30.7205 223.6 -66.0805 225.8C-101.761 228.04 -138.401 230.32 -172.641 230.76C-179.201 231.12 -185.761 231.4 -192.321 231.64C-236.481 233.36 -266.24 232.48 -283.04 228.92C-296.16 226.12 -301.28 221.64 -298.08 215.52V215.4L-297.92 215.48C-285.44 220.6 -270.56 224.32 -252.16 226.84C-235.841 229.08 -217.281 230.32 -195.521 230.6C-188.161 230.72 -180.641 230.68 -172.961 230.6C-141.121 228.96 -108.001 226.44 -80.4805 224.36C-52.8005 222.28 -30.8805 220.6 -20.1605 220.56C1.91949 220.44 24.3195 220.52 46.5595 220.8C79.1995 220.24 112.319 218.96 144.639 217.76C182.399 216.32 221.439 214.88 259.519 214.48C302.239 214.04 339.039 215.04 372.159 217.56C392.479 219.08 411.839 220.72 430.399 222.28C515.039 229.4 587.999 235.56 689.599 227.72C718.879 225.44 744.479 221.64 767.679 216.08C788.319 211.12 805.279 205.32 821.599 199.68C835.199 194.96 849.279 190.12 865.439 185.8C883.519 181 902.399 177.44 923.039 174.92C967.839 169.48 1025.6 168.8 1085.28 173C1112.16 174.88 1138.88 177.76 1162.56 181.28C1186.24 184.8 1207.04 189 1222.88 193.44C1259.52 203.76 1300.16 214.16 1348.48 220.6C1396.64 227 1448.96 229.12 1513.28 227.24C1548.8 226.2 1588 223.48 1633.44 218.92C1674.08 214.84 1716 209.64 1756.64 204.6C1832.32 195.2 1910.72 185.52 1988.16 181.8C2029.92 179.8 2068 179.68 2104.32 181.44C2124 182.4 2143.52 183.92 2162.08 186C2181.6 188.16 2200.96 191.04 2219.52 194.48L2220 194.56H2219.52C2188.48 194 2157.92 193.08 2128.32 192.2C2085.44 190.92 2044.96 189.72 2003.04 189.44C1955.68 189.16 1915.04 190.16 1875.2 192.56C1812.64 196.36 1764.16 205.72 1717.44 214.76C1695.84 218.92 1673.44 223.28 1650.24 226.88C1624.32 230.96 1599.84 233.72 1575.52 235.36C1534.08 238.16 1475.68 238.04 1415.36 234.96C1354.88 231.88 1300.8 226.28 1267.04 219.6C1236.16 213.48 1218.72 206.2 1201.92 199.2C1187.68 193.24 1174.24 187.64 1153.76 183.4C1131.04 178.64 1102.56 176.28 1064.32 175.88C1036.48 175.6 1010.72 176.48 985.599 178.6C963.199 180.48 941.919 183.28 920.479 187.16C880.479 194.36 845.919 204.36 812.639 214C809.119 215 805.759 216 802.239 217C779.679 223.52 751.679 228.56 719.039 232C689.919 235.08 657.439 236.92 619.679 237.64C607.999 237.96 595.519 238.08 582.879 238.08ZM49.7595 220.92C152.159 222.12 255.519 226.6 356.159 231C373.759 231.76 391.839 232.56 409.599 233.32C478.239 236.24 551.039 239 620.319 237.64C700.159 236.12 759.839 229.36 802.559 217.04C806.079 216.04 809.439 215.04 812.959 214.04C846.399 204.4 880.959 194.4 920.959 187.16C942.559 183.28 963.839 180.48 986.239 178.6C1011.36 176.52 1037.12 175.6 1064.96 175.88C1103.2 176.28 1131.68 178.64 1154.56 183.4C1175.04 187.64 1188.48 193.28 1202.72 199.2C1219.52 206.24 1236.96 213.48 1267.84 219.6C1301.6 226.28 1355.68 231.88 1416.16 234.96C1476.48 238.04 1534.72 238.16 1576.16 235.36C1600.48 233.72 1624.8 230.96 1650.72 226.88C1673.92 223.24 1696.16 218.92 1717.92 214.76C1764.8 205.72 1813.12 196.36 1875.84 192.56C1915.68 190.12 1956.32 189.12 2003.68 189.44C2045.44 189.68 2086.08 190.92 2128.96 192.2C2158.4 193.08 2188.8 194 2219.52 194.56C2201.12 191.16 2181.92 188.32 2162.56 186.16C2144 184.08 2124.48 182.56 2104.8 181.6C2068.48 179.84 2030.56 179.96 1988.8 181.96C1911.36 185.68 1832.96 195.36 1757.28 204.76C1716.64 209.8 1674.72 215 1634.08 219.08C1588.64 223.68 1549.28 226.4 1513.76 227.44C1449.28 229.32 1396.96 227.2 1348.8 220.8C1300.48 214.36 1259.84 203.96 1223.04 193.64C1207.2 189.2 1186.4 185 1162.88 181.48C1139.2 177.96 1112.48 175.08 1085.6 173.2C1025.92 169 968.319 169.68 923.519 175.12C902.879 177.64 883.999 181.16 865.919 185.96C849.759 190.24 835.679 195.12 822.079 199.8C805.759 205.44 788.799 211.28 768.159 216.2C744.959 221.76 719.359 225.56 689.919 227.84C588.319 235.72 515.199 229.56 430.559 222.4C411.839 220.84 392.639 219.2 372.319 217.68C339.199 215.16 302.399 214.16 259.839 214.6C221.759 215 182.719 216.44 144.959 217.88C113.759 219.12 81.4395 220.32 49.7595 220.92ZM-297.44 215.72C-300.48 221.72 -295.36 226.16 -282.4 228.92C-265.6 232.48 -236.001 233.36 -192.001 231.64C-186.241 231.4 -180.321 231.16 -174.401 230.84C-181.441 230.92 -188.161 230.92 -195.041 230.84C-216.961 230.56 -235.521 229.32 -251.84 227.04C-270.08 224.48 -285.12 220.8 -297.44 215.72ZM-0.640533 220.68C-7.04053 220.68 -13.4405 220.68 -19.6805 220.72C-30.4005 220.76 -52.1605 222.44 -79.8405 224.52C-106.721 226.56 -139.041 229 -170.241 230.64C-136.641 230.12 -100.801 227.88 -65.9205 225.68C-30.5605 223.48 2.87949 221.4 33.2795 221.04C36.7995 221 40.4795 220.96 44.1595 220.88C29.1195 220.76 14.2395 220.68 -0.640533 220.68Z" fill="#CFCFCF"/>
<path d="M1527.2 245.32C1523.84 245.32 1520.48 245.32 1516.96 245.28C1489.6 245.12 1460.64 244.28 1431.2 242.8C1376.8 240.08 1321.44 235.24 1270.88 228.84C1234.08 224.16 1208.96 217.48 1184.48 211C1167.04 206.36 1150.56 201.96 1130.08 198.28C1107.04 194.12 1083.04 191.64 1054.4 190.44C1012.8 188.72 979.361 189.84 948.961 193.92C921.761 197.6 900.161 203.24 877.441 209.2C851.841 215.88 825.441 222.8 787.841 228C678.721 243.12 586.721 247.2 459.361 242.48C432.801 241.48 405.601 240.44 379.361 239.4C257.761 234.6 132.161 229.68 8.00082 230.76C-19.1992 231 -52.9592 233.76 -88.6392 236.64C-130.399 240.04 -173.599 243.56 -211.679 243.56C-211.999 243.56 -212.159 243.56 -212.479 243.56C-233.279 243.52 -250.239 242.48 -264.799 240.28C-280.959 237.84 -293.599 233.96 -302.719 228.72L-303.199 228.44L-302.399 228.68C-287.679 233.24 -272.479 236.48 -255.839 238.6C-240.959 240.48 -225.279 241.4 -207.999 241.44C-175.679 241.48 -143.199 238.44 -108.799 235.2C-84.7992 232.96 -59.9992 230.64 -35.3592 229.44C18.4008 226.88 90.0808 225.48 161.281 225.56C237.121 225.68 306.561 227.48 356.641 230.64C360.961 230.92 365.441 231.2 369.761 231.48C432.801 235.44 497.921 239.56 563.361 240.48C638.081 241.52 699.681 238.04 751.841 229.84C791.201 223.64 818.401 214.52 844.801 205.72C888.321 191.16 929.441 177.44 1019.2 178.72C1056 179.24 1085.44 181.6 1112 186.08C1135.68 190.12 1154.24 195.36 1173.76 200.92C1193.12 206.4 1212.96 212.08 1240 217.16C1262.72 221.48 1288.8 225.12 1317.44 228.08C1344.48 230.88 1373.92 233 1404.8 234.4C1463.68 237.08 1525.92 237.16 1584.96 234.6C1644.32 232 1712.8 222.52 1785.28 212.48C1861.6 201.92 1940.48 191 2016.48 186.96C2057.6 184.76 2093.92 184.8 2127.2 187.04C2145.44 188.28 2162.88 190.2 2179.04 192.76C2196.16 195.44 2212.48 198.96 2227.68 203.16L2228 203.24L2227.52 203.2C2170.88 200.36 2110.72 197.48 2051.2 196.76C2020 196.4 1991.36 196.6 1963.68 197.44C1932.96 198.36 1904 200 1875.52 202.44C1826.24 206.64 1786.56 214.6 1748.32 222.28C1726.4 226.68 1703.68 231.24 1679.52 235C1652.48 239.2 1626.4 241.92 1599.68 243.32C1577.28 244.72 1552.8 245.32 1527.2 245.32ZM1019.04 189.6C1030.24 189.6 1042.08 189.88 1054.56 190.4C1083.04 191.6 1107.2 194.08 1130.24 198.24C1150.72 201.92 1167.2 206.32 1184.64 210.96C1208.96 217.44 1234.08 224.16 1270.88 228.8C1321.44 235.2 1376.8 240.04 1431.2 242.76C1460.8 244.24 1489.6 245.08 1516.96 245.24C1546.24 245.4 1574.08 244.84 1599.52 243.48C1626.08 242.08 1652.16 239.36 1679.2 235.16C1703.36 231.4 1726.08 226.84 1748 222.44C1786.4 214.76 1825.92 206.8 1875.36 202.56C1904 200.12 1932.8 198.48 1963.68 197.56C1991.52 196.72 2020.16 196.52 2051.36 196.88C2110.72 197.6 2170.88 200.44 2227.36 203.28C2212.32 199.12 2196.16 195.64 2179.2 192.96C2163.04 190.4 2145.6 188.48 2127.36 187.28C2094.08 185.04 2057.92 185 2016.8 187.2C1940.8 191.24 1861.92 202.16 1785.76 212.72C1713.28 222.76 1644.8 232.24 1585.28 234.84C1526.24 237.44 1464 237.36 1405.12 234.64C1374.24 233.24 1344.8 231.08 1317.6 228.32C1288.96 225.36 1262.88 221.72 1240.16 217.4C1213.28 212.32 1193.28 206.64 1173.92 201.16C1154.4 195.6 1135.84 190.36 1112.16 186.32C1085.6 181.84 1056.16 179.48 1019.52 178.96C929.921 177.68 888.801 191.4 845.441 205.92C819.041 214.72 791.841 223.84 752.321 230.04C700.161 238.24 638.401 241.72 563.681 240.68C498.241 239.76 433.121 235.64 370.081 231.68C365.601 231.4 361.281 231.12 356.961 230.84C306.881 227.68 237.441 225.88 161.601 225.76C90.4008 225.64 18.7208 227.08 -35.0392 229.64C-59.8392 230.8 -84.4792 233.16 -108.479 235.4C-142.559 238.6 -174.719 241.64 -206.879 241.64C-207.199 241.64 -207.519 241.64 -207.679 241.64C-225.119 241.6 -240.799 240.68 -255.679 238.8C-272.319 236.68 -287.359 233.48 -301.759 229.04C-292.799 234.12 -280.319 237.92 -264.479 240.28C-250.079 242.44 -233.119 243.52 -212.319 243.52C-174.079 243.56 -130.719 240.04 -88.6392 236.64C-52.9592 233.72 -19.1992 231 8.16083 230.76C132.321 229.68 257.921 234.6 379.521 239.4C405.761 240.44 432.961 241.52 459.521 242.48C492.641 243.72 523.201 244.32 552.481 244.32C635.681 244.32 707.201 239.2 787.841 228C825.441 222.8 851.841 215.88 877.281 209.2C900.161 203.2 921.761 197.56 948.961 193.88C970.241 191 992.961 189.6 1019.04 189.6Z" fill="#CFCFCF"/>
<path d="M608.001 252.8C557.441 252.8 505.921 250.92 455.201 249.08C428.001 248.08 402.241 247.16 376.481 246.48C338.881 245.52 299.681 244.36 261.921 243.24C165.921 240.4 66.7208 237.48 -27.1992 236.84C-29.7592 236.84 -32.3192 236.84 -34.8792 236.84C-57.2792 238.04 -80.9592 239.96 -105.279 241.92C-178.559 247.88 -254.239 254.04 -307.199 240.04L-307.039 240C-293.919 242.48 -280.159 244.2 -264.959 245.24C-251.359 246.16 -236.959 246.52 -220.959 246.32C-191.039 245.96 -159.839 243.72 -129.759 241.56C-98.2392 239.28 -65.7592 236.96 -34.8792 236.8C-20.3192 236.04 -6.23923 235.56 7.20078 235.6C127.681 235.88 253.601 238.76 403.681 244.56C480.001 247.52 538.561 248.6 593.441 248.08C659.841 247.44 720.481 244.36 778.721 238.56C797.761 236.68 815.361 234.04 831.841 231.08C832.801 230.88 833.761 230.68 834.561 230.48C852.321 226.56 869.281 222.84 888.641 219.72C908.801 215.56 928.481 211.68 950.401 208.76C964.321 206.88 977.761 205.6 991.521 204.76C1006.88 203.84 1022.24 203.56 1038.56 203.88C1065.12 204.44 1092 206.56 1120.64 210.36C1146.24 213.76 1170.88 218.2 1194.88 222.48C1228 228.4 1262.24 234.56 1299.68 238.16C1351.84 243.2 1407.52 246.16 1465.44 246.96C1521.76 247.72 1578.56 246.44 1634.24 243.08C1683.04 240.16 1743.04 231.36 1806.4 222.04C1843.52 216.56 1882.08 210.92 1920.64 206.08C1964.32 200.6 2001.76 197.04 2035.2 195.12C2075.68 192.8 2110.72 192.92 2142.24 195.4C2159.36 196.76 2175.52 198.88 2190.4 201.68C2205.92 204.64 2220.48 208.52 2233.6 213.12L2233.92 213.2L2233.44 213.16C2222.24 212.4 2210.88 211.64 2200 210.88C2091.2 203.44 1988.32 196.4 1886.24 212.24C1876.48 213.76 1866.56 215.28 1857.12 216.8C1810.56 224.08 1766.56 230.96 1719.52 236.68C1666.72 243.08 1618.08 247 1566.56 249.04C1536 250.24 1505.28 250.76 1475.2 250.56C1446.08 250.4 1416.64 249.56 1387.68 248.08C1332.96 245.28 1278.08 240.24 1219.84 232.68C1208.8 231.24 1197.6 229.72 1186.88 228.28C1152 223.56 1118.88 219.08 1083.52 216C1064.48 214.32 1046.56 213.24 1028.64 212.6C1008.64 211.92 989.121 211.84 969.121 212.4C941.921 213.16 917.921 215.24 893.761 218.92C892.161 219.16 890.561 219.4 888.961 219.68C885.281 220.44 881.601 221.2 877.761 222C863.041 225.08 848.001 228.24 832.001 231.08C807.841 236.4 782.561 241.84 750.241 245.64C705.121 251 657.121 252.8 608.001 252.8ZM-31.3592 236.72C-29.9192 236.72 -28.4792 236.72 -27.1992 236.72C66.7208 237.36 165.921 240.28 261.921 243.12C299.681 244.24 338.881 245.4 376.481 246.36C402.241 247.04 428.001 247.96 455.201 248.96C555.201 252.6 658.561 256.36 750.081 245.6C781.281 241.92 805.921 236.72 829.441 231.52C813.601 234.28 796.961 236.76 778.721 238.56C720.481 244.36 659.841 247.44 593.281 248.08C538.401 248.6 479.841 247.52 403.521 244.56C253.441 238.72 127.361 235.88 7.0408 235.6C-5.91919 235.56 -19.3592 236 -33.4392 236.72C-32.6392 236.72 -31.9992 236.72 -31.3592 236.72ZM995.841 212C1006.72 212 1017.6 212.2 1028.64 212.56C1046.56 213.16 1064.48 214.28 1083.68 215.96C1119.2 219.08 1152.16 223.52 1187.2 228.28C1197.92 229.72 1208.96 231.24 1220.16 232.68C1278.24 240.28 1333.12 245.32 1387.84 248.08C1416.8 249.56 1446.24 250.4 1475.36 250.56C1505.44 250.76 1536.16 250.24 1566.72 249.04C1618.24 247 1666.72 243.08 1719.52 236.68C1766.4 231 1810.4 224.08 1856.96 216.8C1866.4 215.32 1876.32 213.76 1886.08 212.24C1988.32 196.4 2091.2 203.44 2200 210.88C2210.72 211.6 2221.92 212.4 2232.96 213.12C2220 208.56 2205.6 204.72 2190.08 201.8C2175.36 199 2159.2 196.88 2142.08 195.52C2110.72 193.04 2075.84 192.96 2035.36 195.24C2001.92 197.12 1964.48 200.72 1920.8 206.16C1882.24 211 1843.84 216.64 1806.56 222.12C1743.2 231.44 1683.2 240.24 1634.4 243.2C1578.72 246.56 1521.76 247.84 1465.44 247.08C1407.52 246.28 1351.68 243.32 1299.52 238.28C1262.08 234.64 1227.84 228.52 1194.72 222.56C1170.88 218.28 1146.08 213.84 1120.48 210.44C1091.84 206.64 1065.12 204.52 1038.56 203.96C1022.24 203.64 1006.88 203.92 991.521 204.84C977.761 205.64 964.321 206.96 950.561 208.8C929.441 211.64 910.401 215.32 890.881 219.36C891.681 219.24 892.641 219.08 893.441 218.96C917.601 215.24 941.601 213.16 968.961 212.4C978.081 212.12 986.881 212 995.841 212ZM-305.759 240.32C-252.959 253.8 -178.079 247.72 -105.599 241.84C-81.7592 239.92 -58.7192 238.04 -36.7992 236.84C-67.1992 237.08 -98.8792 239.36 -129.759 241.6C-159.999 243.76 -191.199 246 -221.119 246.36C-237.279 246.56 -251.679 246.2 -265.279 245.28C-279.839 244.28 -293.119 242.68 -305.759 240.32ZM886.561 220.12C868.161 223.16 852.001 226.76 834.881 230.52C834.721 230.56 834.721 230.56 834.561 230.6C849.441 227.88 863.681 224.92 877.601 222C880.481 221.36 883.521 220.72 886.561 220.12Z" fill="#CFCFCF"/>
<path d="M-181.441 264.48C-188.641 264.48 -195.681 264.4 -202.721 264.28C-251.521 263.28 -287.361 258.48 -312.161 249.6L-312.641 249.4L-311.841 249.52C-295.521 252.44 -279.201 254.4 -261.441 255.56C-245.761 256.6 -229.281 256.96 -211.521 256.64C-178.241 256.08 -144.321 253.24 -111.521 250.52C-81.7606 248.04 -51.0406 245.48 -20.3206 244.52C59.3594 242 143.359 245.12 224.639 248.12C265.919 249.64 308.639 251.24 349.439 252C364.959 252.28 379.999 252.56 394.399 252.76C400.479 252.72 406.559 252.64 412.639 252.56C427.999 252.4 443.679 252.24 458.879 252.12C555.519 251.2 655.199 250.24 752.479 247C783.359 244.64 813.44 241.28 842.719 238C868.8 235.08 895.839 232.08 922.88 229.8C953.12 227.28 980.319 226.04 1005.76 225.96C1058.24 225.8 1112.64 230.4 1165.28 234.8C1199.84 237.72 1235.52 240.72 1269.76 242.28C1405.44 248.44 1534.24 248.88 1652.64 243.56C1738.88 239.68 1805.44 231.12 1876 222.04C1886.4 220.72 1896.96 219.36 1907.52 218C1915.04 216.76 1922.88 215.56 1931.04 214.36C1946.56 212.04 1962.72 210.52 1979.04 209.6C2030.08 204.8 2133.92 201 2192 209.08C2215.52 212.36 2229.12 217.24 2232.64 223.64V223.72L2232.32 223.68C2220.48 222.56 2208.64 221.4 2196.16 220.16C2126.72 213.32 2049.92 205.68 1978.88 209.68C1975.52 210 1972.32 210.32 1969.44 210.64C1948 213.04 1927.36 215.56 1907.36 218.08C1885.92 221.52 1866.56 225.04 1847.68 228.48C1818.72 233.72 1791.36 238.68 1760.16 242.88C1725.12 247.6 1690.24 250.64 1650.56 252.52C1597.44 255.04 1542.08 256.24 1485.76 256.12C1428.8 256 1373.6 254.52 1321.44 251.76C1285.28 249.84 1248.8 246.8 1213.6 243.84C1155.36 238.96 1095.2 233.96 1033.76 233.64C981.28 233.4 929.12 236.92 878.559 240.36C846.88 242.52 814.24 244.72 781.92 246C772 246.4 762.079 246.76 752.159 247.08C741.439 247.88 730.719 248.6 719.839 249.16C663.519 251.96 603.039 253.44 535.039 253.76C492.319 253.96 446.719 253.68 394.079 252.88C373.599 253.08 352.959 253.28 332.799 253.44C218.879 254.48 101.279 255.56 -13.2806 258.88C-31.2006 259.4 -50.4006 260.24 -70.5606 261.16C-107.201 262.8 -145.121 264.48 -181.441 264.48ZM-311.361 249.76C-286.561 258.48 -251.041 263.2 -202.721 264.2C-160.001 265.08 -114.401 263.04 -70.2406 261.08C-49.9206 260.16 -30.8806 259.32 -12.9606 258.8C101.439 255.48 219.199 254.4 333.119 253.36C352.159 253.2 371.68 253 391.199 252.84C377.759 252.64 363.839 252.4 349.439 252.12C308.639 251.36 265.919 249.76 224.639 248.24C143.359 245.24 59.1994 242.12 -20.3206 244.64C-51.2006 245.6 -81.7606 248.16 -111.521 250.64C-144.321 253.36 -178.241 256.2 -211.521 256.76C-229.441 257.08 -245.761 256.72 -261.601 255.68C-279.041 254.52 -295.361 252.6 -311.361 249.76ZM1028.8 233.52C1030.56 233.52 1032.32 233.52 1034.08 233.52C1095.52 233.8 1155.84 238.84 1214.08 243.72C1249.28 246.68 1285.76 249.72 1321.92 251.64C1373.92 254.44 1429.28 255.88 1486.24 256C1542.56 256.12 1597.92 254.92 1651.04 252.4C1690.72 250.52 1725.6 247.44 1760.64 242.76C1791.84 238.56 1819.2 233.6 1848.16 228.36C1866.4 225.08 1884.96 221.68 1905.44 218.36C1895.68 219.6 1886.08 220.84 1876.48 222.08C1805.92 231.16 1739.2 239.76 1652.96 243.6C1534.4 248.92 1405.6 248.48 1269.92 242.32C1235.68 240.76 1199.84 237.76 1165.28 234.84C1113.6 230.48 1060.16 226 1008.64 226C1007.68 226 1006.72 226 1005.92 226C980.479 226.08 953.279 227.36 923.039 229.84C896 232.08 869.12 235.12 842.88 238.04C814.079 241.24 784.64 244.56 754.4 246.92C763.68 246.6 772.959 246.28 782.24 245.92C814.559 244.68 847.199 242.44 878.88 240.28C927.68 236.96 978.079 233.52 1028.8 233.52ZM397.599 252.8C448.799 253.56 493.439 253.8 535.359 253.64C603.519 253.36 663.999 251.84 720.159 249.04C730.399 248.52 740.479 247.88 750.559 247.12C653.919 250.32 554.879 251.28 458.879 252.2C443.679 252.36 427.999 252.48 412.639 252.64C407.679 252.72 402.719 252.76 397.599 252.8ZM2020.8 208.48C2079.68 208.48 2140.64 214.52 2196.8 220.04C2209.28 221.28 2220.96 222.44 2232.64 223.52C2229.12 217.2 2215.52 212.32 2192.16 209.08C2157.44 204.24 2109.28 204.04 2075.2 204.68C2042.24 205.32 2007.04 207.12 1981.6 209.44C1994.4 208.8 2007.52 208.48 2020.8 208.48ZM1977.12 209.8C1961.6 210.72 1946.24 212.24 1931.36 214.44C1924.16 215.52 1917.12 216.6 1910.4 217.68C1929.6 215.28 1949.28 212.88 1969.76 210.56C1972.16 210.32 1974.56 210.04 1977.12 209.8Z" fill="#CFCFCF"/>
<path d="M-185.919 268.96C-194.719 268.96 -203.519 268.88 -212.159 268.68C-254.719 267.72 -287.839 264.08 -313.759 257.64L-314.719 257.4L-313.599 257.56C-251.039 266.84 -176.639 262.56 -104.639 258.44C-65.5987 256.2 -28.7987 254.08 6.2413 253.96C76.0013 253.72 147.201 255.16 216.001 256.56C284.801 257.96 356.001 259.4 426.081 259.16C547.681 258.76 654.081 256.4 751.361 251.84C783.201 250.36 814.401 247.76 844.641 245.24C879.201 242.4 914.721 239.44 951.041 238.12C1016.64 235.8 1085.6 240.32 1152.16 244.68C1191.36 247.24 1231.68 249.92 1270.56 251.08C1404.16 255.12 1544.8 254.44 1688.64 249.12C1737.92 247.28 1782.4 244.44 1828.8 240.12C1870.56 236.24 1909.92 231.48 1951.52 226.48C1972 224 1993.12 221.48 2015.84 218.88C2035.04 216.68 2071.2 215.12 2105.6 214.96C2148.32 214.8 2182.56 216.8 2201.92 220.64C2218.4 223.88 2224.64 228.4 2220.32 234.04V234.08L2220.16 234.04C2185.6 229.2 2150.24 226.28 2112.48 225.16C2078.72 224.16 2043.68 224.6 2005.44 226.52C1934.24 230.08 1862.4 238.32 1792.8 246.28C1732.8 253.16 1670.56 260.24 1609.6 264.24C1577.76 266.32 1546.56 267.44 1514.08 267.68C1485.12 267.88 1455.84 267.36 1424.64 266.08C1366.56 263.72 1309.76 259 1254.88 254.44C1177.44 248 1097.28 241.32 1008.8 240.68C955.361 240.28 899.361 244.6 845.121 248.8C808.321 251.64 770.401 254.56 733.921 255.96C608.801 260.72 478.881 261.68 353.281 262.6L341.921 262.68C298.561 263 254.561 263.12 212.161 263.24C124.641 263.48 33.9213 263.72 -54.8787 265.76C-68.6387 266.08 -82.5587 266.52 -97.4387 267C-126.399 268 -156.479 268.96 -185.919 268.96ZM-312.639 257.76C-287.039 264.08 -254.079 267.6 -212.159 268.56C-174.719 269.4 -135.359 268.16 -97.2787 266.96C-82.5587 266.48 -68.4787 266.04 -54.7187 265.72C34.2413 263.68 124.801 263.44 212.321 263.2C254.881 263.08 298.881 262.96 342.081 262.64L353.441 262.56C479.041 261.64 608.801 260.68 734.081 255.92C770.561 254.52 808.481 251.6 845.281 248.76C899.521 244.6 955.521 240.28 1009.12 240.64C1097.6 241.28 1177.76 247.96 1255.36 254.4C1310.24 258.96 1367.04 263.68 1425.12 266.04C1456.32 267.32 1485.6 267.84 1514.56 267.64C1547.04 267.4 1578.24 266.28 1610.08 264.2C1671.04 260.2 1733.12 253.08 1793.12 246.24C1862.72 238.28 1934.56 230.04 2005.76 226.48C2044.16 224.56 2079.2 224.12 2112.96 225.12C2150.72 226.24 2185.92 229.12 2220.64 233.96C2224.96 228.36 2218.72 223.92 2202.4 220.68C2183.04 216.88 2148.8 214.88 2106.24 215.04C2071.84 215.16 2035.84 216.72 2016.48 218.92C1993.76 221.52 1972.64 224.08 1952.16 226.52C1868.8 236.52 1796.8 245.2 1689.12 249.16C1545.28 254.48 1404.64 255.12 1271.04 251.12C1232.32 249.96 1191.84 247.28 1152.64 244.72C1086.08 240.36 1017.12 235.84 951.521 238.16C915.201 239.44 879.521 242.4 845.121 245.28C814.881 247.8 783.521 250.4 751.681 251.88C654.401 256.4 548.001 258.8 426.241 259.2C356.161 259.44 284.961 257.96 216.001 256.6C147.201 255.2 76.0013 253.76 6.2413 254C-28.7987 254.12 -65.5987 256.24 -104.639 258.48C-144.959 260.8 -186.079 263.16 -225.279 263.16C-255.839 263.16 -285.279 261.76 -312.639 257.76Z" fill="#CFCFCF"/>
<path d="M1441.6 275.08C1433.6 275.08 1425.76 275.04 1417.92 274.96C1371.2 274.48 1324.32 272.6 1278.56 269.36C1245.12 267 1210.88 263.36 1177.76 259.84C1150.24 256.92 1122.24 253.96 1093.92 251.6C1078.24 250.84 1062.4 250.28 1046.4 249.96C1016.64 249.36 985.917 249.88 952.317 251.56C922.237 253.04 892.637 255.32 863.837 257.56C831.837 260 798.717 262.56 763.837 264.16C710.877 266.6 655.517 267.44 600.317 267.72C520.477 269.92 434.237 270.88 335.357 270.8C283.037 270.76 229.437 269.88 177.597 269.08C106.557 267.96 32.9566 266.8 -38.2433 267.64C-63.3634 267.96 -89.6034 269.16 -117.283 270.44C-187.523 273.68 -260.003 277 -316.803 265.24L-317.443 265.08L-316.643 265.16C-246.883 271.56 -166.083 269.44 -88.0034 267.36C-48.6434 266.32 -11.3634 265.32 24.4767 265.4C91.3566 265.48 159.357 266 225.117 266.52C297.597 267.08 372.637 267.64 446.397 267.64C447.997 267.64 449.597 267.64 451.037 267.64C467.357 267.64 483.997 267.68 500.157 267.68C533.277 267.72 566.717 267.8 600.157 267.64C628.477 266.88 655.997 265.96 682.877 264.88C722.557 263.28 764.157 260.08 808.317 256.68C872.797 251.68 939.677 246.56 999.677 246.96C1031.52 247.16 1063.04 249 1093.92 251.56C1134.24 253.48 1173.76 256.52 1212.32 259.48C1276.8 264.44 1343.36 269.56 1413.28 269.32C1478.08 269.08 1543.36 265.32 1606.56 261.64C1640 259.72 1674.72 257.68 1708.48 256.28C1824.64 251.4 1916.16 243 2022.24 233.32C2027.04 232.88 2031.84 232.44 2036.8 232C2054.08 230.44 2085.12 228.32 2115.84 227.52C2132.96 227.08 2148 227.08 2160.48 227.56C2175.2 228.12 2186.56 229.32 2194.08 231.08C2206.4 234 2208.96 238.6 2201.6 244.68V244.72H2201.44C2138.08 239.56 2092.16 237.52 2048 237.92C2003.36 238.32 1958.56 241.2 1897.92 247.52C1796.16 258.16 1678.88 266.76 1558.88 272.36C1519.36 274.16 1480 275.08 1441.6 275.08ZM1096.16 251.72C1123.68 254.04 1151.04 256.92 1177.76 259.76C1210.88 263.28 1244.96 266.92 1278.56 269.28C1324.32 272.52 1371.2 274.4 1417.92 274.88C1463.84 275.36 1511.2 274.44 1558.56 272.24C1678.56 266.64 1795.84 258.04 1897.6 247.4C1958.24 241.04 2003.2 238.2 2047.84 237.8C2092 237.4 2137.92 239.44 2201.28 244.6C2208.64 238.56 2206.08 234 2193.92 231.12C2186.4 229.36 2175.2 228.16 2160.48 227.6C2148 227.12 2132.96 227.12 2115.84 227.56C2084.96 228.36 2054.08 230.48 2036.8 232.04C2032 232.48 2027.04 232.92 2022.24 233.36C1916.16 243.08 1824.64 251.44 1708.48 256.32C1674.56 257.76 1640 259.76 1606.56 261.68C1543.36 265.32 1478.08 269.12 1413.28 269.36C1411.68 269.36 1410.08 269.36 1408.32 269.36C1340.16 269.36 1275.2 264.36 1212.16 259.52C1174.4 256.6 1135.68 253.64 1096.16 251.72ZM-316.003 265.32C-259.523 276.88 -187.363 273.56 -117.603 270.36C-89.9234 269.08 -63.6833 267.88 -38.5634 267.56C32.7967 266.68 106.237 267.88 177.437 269C229.277 269.84 282.877 270.68 335.197 270.72C432.637 270.8 517.597 269.84 596.477 267.72C564.157 267.88 531.997 267.8 499.997 267.76C483.037 267.72 465.597 267.72 448.477 267.72C447.677 267.72 446.877 267.72 446.077 267.72C372.317 267.72 297.277 267.16 224.797 266.6C159.037 266.08 91.0367 265.56 24.1566 265.48C-11.6833 265.44 -48.8033 266.4 -88.3234 267.44C-165.923 269.48 -246.403 271.6 -316.003 265.32ZM992.797 246.96C934.557 246.96 870.397 251.92 808.317 256.72C764.317 260.12 722.557 263.32 682.877 264.92C656.957 265.96 630.717 266.84 603.517 267.6C657.597 267.32 711.677 266.44 763.517 264.04C798.397 262.44 831.517 259.92 863.517 257.44C892.317 255.24 922.077 252.96 951.997 251.44C985.597 249.76 1016.32 249.24 1046.08 249.84C1061.28 250.16 1076.32 250.68 1091.36 251.36C1061.12 248.88 1030.4 247.16 999.517 246.92C997.277 247 995.037 246.96 992.797 246.96Z" fill="#CFCFCF"/>
<path d="M-132.004 287.319C-176.804 287.319 -213.924 286.359 -242.404 284.519C-260.324 283.359 -275.364 281.799 -287.044 279.879C-299.524 277.839 -308.484 275.319 -313.764 272.399L-313.924 272.319L-313.604 272.359C-283.204 275.879 -246.244 277.799 -200.644 278.159C-160.324 278.479 -118.244 277.639 -77.6039 276.799C-42.2438 276.079 -8.80386 275.399 22.3961 275.479C119.356 275.759 220.796 275.679 337.756 275.199C354.876 274.919 371.836 274.639 388.636 274.359C533.276 271.999 671.356 269.759 813.116 263.559C815.676 263.399 818.236 263.199 820.796 263.039C892.636 258.239 966.876 253.279 1041.44 256.999C1084 259.119 1121.28 263.759 1157.28 268.279C1200.64 273.679 1245.6 279.279 1300.16 280.519C1348.48 281.639 1397.44 281.159 1454.24 279.039C1504.32 277.159 1552.64 274.279 1603.84 271.279C1621.92 270.199 1640.48 269.119 1659.04 268.039C1670.56 267.399 1691.52 265.959 1718.08 264.119C1847.04 255.239 2115.52 236.719 2173.44 248.639C2181.6 250.319 2185.28 252.599 2184.48 255.359V255.399H2184.32C1967.04 256.119 1771.2 266.919 1564 278.359C1544.8 279.439 1524.8 280.519 1505.12 281.599C1457.28 284.199 1407.2 284.959 1356.16 283.759C1309.12 282.679 1261.28 280.039 1210.08 275.719C1183.04 273.439 1157.92 270.799 1133.44 268.279C1097.12 264.479 1062.88 260.919 1026.72 258.879C986.076 256.599 948.636 256.559 908.956 258.839C876.796 260.679 844.956 262.239 813.436 263.639C799.036 264.599 784.316 265.559 769.756 266.439C714.716 269.759 654.396 271.959 585.276 273.239C523.516 274.399 459.996 274.679 398.556 274.999H396.156C376.316 275.079 356.796 275.199 337.756 275.279C307.036 275.799 275.836 276.319 244.636 276.919C227.676 277.239 199.196 278.359 163.036 279.719C85.1161 282.719 -21.6039 286.839 -116.324 287.279C-121.604 287.319 -126.884 287.319 -132.004 287.319ZM-313.284 272.479C-308.004 275.319 -299.204 277.799 -286.884 279.799C-275.204 281.719 -260.324 283.279 -242.244 284.439C-210.404 286.519 -168.004 287.439 -116.324 287.199C-21.6039 286.759 85.1161 282.639 163.036 279.639C199.036 278.239 227.516 277.159 244.636 276.839C273.756 276.279 302.876 275.759 331.516 275.279C217.116 275.719 117.596 275.799 22.3961 275.519C-8.80386 275.439 -42.2438 276.119 -77.6039 276.839C-118.244 277.679 -160.324 278.519 -200.644 278.199C-246.084 277.879 -282.884 275.959 -313.284 272.479ZM966.876 257.079C986.396 257.079 1006.08 257.639 1026.56 258.799C1062.88 260.839 1097.12 264.399 1133.44 268.199C1157.76 270.759 1183.04 273.359 1210.08 275.639C1316.64 284.639 1413.12 286.559 1504.96 281.519C1524.8 280.439 1544.64 279.319 1563.84 278.279C1771.04 266.839 1966.88 255.999 2184.16 255.319C2184.96 252.599 2181.28 250.359 2173.28 248.719C2115.52 236.839 1847.2 255.319 1718.24 264.199C1691.68 266.039 1670.72 267.479 1659.2 268.119C1640.64 269.159 1621.92 270.279 1604 271.359C1552.8 274.399 1504.48 277.279 1454.4 279.119C1397.76 281.239 1348.8 281.719 1300.32 280.599C1245.6 279.359 1200.8 273.759 1157.28 268.359C1121.28 263.879 1084 259.239 1041.44 257.119C967.036 253.399 892.796 258.359 820.956 263.159C819.516 263.239 818.236 263.359 816.796 263.439C847.196 262.079 877.916 260.559 908.796 258.799C928.476 257.639 947.676 257.079 966.876 257.079ZM809.596 263.759C669.116 269.839 532.156 272.079 388.636 274.399C373.916 274.639 359.036 274.879 343.996 275.119C360.956 275.039 378.236 274.959 395.996 274.879H398.396C459.836 274.599 523.356 274.279 584.956 273.119C653.916 271.839 714.236 269.599 769.276 266.319C782.876 265.559 796.316 264.679 809.596 263.759Z" fill="#CFCFCF"/>
<path d="M1408.32 298.44C1357.92 298.44 1306.24 296.6 1254.72 292.92C1213.28 289.96 1173.6 284.76 1135.36 279.72C1114.72 277 1093.92 274.24 1072.48 271.84C1064.32 271.08 1056 270.32 1047.68 269.6C1006.08 265.92 964.959 264.6 918.239 265.4C876.479 266.12 835.359 268.44 791.679 270.88C777.439 271.68 762.879 272.52 747.999 273.28C652.959 278.24 555.679 279.24 461.599 280.2C448.479 280.32 435.039 280.48 421.439 280.6C391.839 281.28 362.239 282.08 332.799 283.12C304.959 284.08 272.959 285.4 239.199 286.84C152.799 290.48 45.2793 295 -54.0807 295.32C-108.481 295.52 -154.881 294.48 -196.001 292.16C-218.561 290.88 -239.521 289.2 -258.401 287.16C-278.401 285 -296.481 282.32 -312.161 279.28L-312.641 279.16L-312.001 279.2C-214.561 283.64 -113.761 285.08 -12.3207 285.08C87.3593 285.08 187.839 283.68 286.719 282.28C325.759 281.72 366.079 281.16 405.119 280.72C410.559 280.64 415.999 280.6 421.279 280.52C451.999 279.8 482.559 279.2 512.639 278.6C560.799 277.64 610.559 276.68 659.519 275.24C694.719 274.2 730.719 272.24 768.959 270.16C843.039 266.16 919.679 262 989.279 265C1017.92 266.24 1045.6 268.76 1072.48 271.8C1087.68 273.24 1102.56 274.68 1117.12 276.12C1183.52 282.6 1246.08 288.76 1320.16 290.36C1425.44 292.64 1515.36 285.6 1610.56 278.16C1623.84 277.12 1637.6 276.04 1651.36 275C1706.08 270.84 1763.2 268.88 1818.56 266.96C1866.72 265.32 1916.48 263.6 1964.48 260.44C1975.2 259.72 1987.84 258.68 2001.12 257.52C2046.08 253.68 2101.92 248.92 2138.08 253.88C2145.92 254.96 2152.64 256.48 2157.92 258.4C2163.68 260.48 2168 263.04 2170.88 266.08V266.16H2170.56C2071.36 259.76 1967.52 263.68 1867.2 267.48C1851.84 268.04 1836.16 268.64 1820.64 269.2C1758.08 271.4 1708.8 276.92 1656.64 282.76C1623.84 286.44 1589.92 290.24 1552 293.2C1506.56 296.64 1458.08 298.44 1408.32 298.44ZM1076.96 272.24C1096.8 274.52 1116.32 277.12 1135.68 279.64C1173.92 284.68 1213.44 289.88 1254.88 292.84C1357.28 300.12 1460.16 300.16 1552.32 292.96C1590.24 290 1624.16 286.2 1656.96 282.52C1709.12 276.68 1758.4 271.16 1820.96 268.96C1836.32 268.4 1852.16 267.84 1867.52 267.24C1967.84 263.44 2071.52 259.56 2170.72 265.92C2167.84 262.92 2163.52 260.36 2157.76 258.32C2152.48 256.4 2145.76 254.88 2137.92 253.8C2101.92 248.84 2046.08 253.6 2001.28 257.44C1988 258.56 1975.36 259.64 1964.64 260.36C1916.64 263.52 1866.88 265.24 1818.72 266.88C1763.52 268.8 1706.4 270.76 1651.52 274.92C1637.76 275.96 1624 277.04 1610.72 278.08C1527.84 284.56 1449.12 290.72 1360.64 290.72C1347.36 290.72 1333.92 290.6 1320.32 290.28C1246.24 288.68 1183.52 282.56 1117.12 276.04C1104.16 274.84 1090.72 273.52 1076.96 272.24ZM-311.361 279.24C-295.841 282.24 -277.921 284.88 -258.241 287.04C-239.521 289.08 -218.561 290.76 -196.001 292.04C-155.041 294.36 -108.641 295.4 -54.2407 295.2C45.1193 294.88 152.639 290.36 239.039 286.72C272.799 285.28 304.799 283.96 332.639 283C359.999 282.08 387.519 281.32 415.039 280.64C411.679 280.68 408.479 280.72 405.119 280.76C366.079 281.2 325.759 281.76 286.719 282.32C87.5193 285.12 -118.561 288 -311.361 279.24ZM938.559 264.04C883.519 264.04 825.599 267.16 769.279 270.24C731.039 272.32 694.879 274.28 659.679 275.32C610.719 276.76 560.959 277.76 512.799 278.68C484.799 279.24 456.319 279.8 427.839 280.44C439.199 280.32 450.399 280.2 461.599 280.08C555.679 279.12 652.959 278.16 747.999 273.2C762.879 272.4 777.599 271.6 791.679 270.8C835.359 268.36 876.479 266.04 918.239 265.32C964.959 264.52 1006.24 265.88 1047.84 269.52C1054.56 270.12 1061.28 270.72 1068 271.36C1042.56 268.56 1016.48 266.24 989.439 265.08C972.799 264.32 955.839 264.04 938.559 264.04Z" fill="#CFCFCF"/>
<path d="M1351.84 313.44C1349.12 313.44 1346.56 313.44 1343.84 313.44C1291.2 313.28 1239.68 311.44 1190.72 308C1141.44 304.56 1101.92 298.44 1063.52 292.56C1035.84 288.32 1007.2 283.88 974.719 280.4C957.599 278.56 940.319 277.32 921.759 276.64C905.279 276.04 888.159 275.84 869.599 276.12C834.879 276.6 801.279 278.52 765.599 280.52C741.439 281.88 716.479 283.28 691.199 284.2C631.039 286.36 568.799 287.48 508.799 288.56C463.679 289.36 416.959 290.2 371.519 291.48C329.759 292.64 287.199 294.16 246.079 295.64C153.119 298.96 57.1192 302.4 -36.3208 302.08C-86.5608 301.92 -132.161 300.72 -175.521 298.4C-224.161 295.8 -268.961 291.88 -312.161 286.4L-312.801 286.32H-312.001C-96.9608 289.48 127.999 290.04 356.479 288C477.759 286.92 577.439 284.68 670.399 280.96C698.719 279.84 729.759 277.6 762.559 275.2C800.639 272.44 839.999 269.6 877.919 268.36C920.639 266.96 955.039 267.88 983.039 271.16C1019.36 275.44 1044.64 280.48 1069.28 285.32C1106.88 292.76 1142.4 299.8 1211.2 302.6C1264.64 304.76 1322.08 305.04 1381.92 303.4C1434.72 301.96 1489.44 299.12 1549.6 294.72C1568.16 293.36 1595.84 290.84 1630.72 287.68C1742.4 277.56 1918.24 261.64 2037.92 261.64C2097.6 261.64 2143.36 265.6 2160.32 276.2L2160.48 276.24H2160.16C2127.84 276.12 2094.88 275.72 2062.88 275.32C1976.64 274.32 1887.68 273.24 1801.12 277C1739.36 279.68 1686.56 286.76 1635.68 293.6C1592.64 299.4 1548 305.4 1497.92 308.72C1451.52 311.88 1402.56 313.44 1351.84 313.44ZM885.919 275.92C898.399 275.92 910.239 276.12 921.759 276.56C940.319 277.24 957.599 278.48 974.719 280.32C1007.2 283.8 1035.84 288.2 1063.52 292.48C1101.92 298.36 1141.44 304.48 1190.72 307.92C1239.68 311.36 1291.2 313.16 1343.68 313.32C1397.12 313.48 1448.96 311.92 1497.28 308.72C1547.36 305.36 1591.84 299.4 1635.04 293.6C1686.08 286.76 1738.72 279.64 1800.64 276.96C1887.2 273.2 1976.32 274.28 2062.56 275.28C2094.4 275.64 2127.36 276.04 2159.52 276.2C2142.56 265.68 2096.96 261.72 2037.6 261.72C1917.92 261.72 1742.08 277.64 1630.4 287.76C1595.52 290.92 1567.84 293.44 1549.28 294.8C1489.12 299.2 1434.4 302.08 1381.6 303.48C1321.76 305.12 1264.32 304.84 1210.88 302.68C1142.08 299.88 1106.4 292.84 1068.8 285.4C1044.32 280.52 1018.88 275.52 982.719 271.24C954.719 267.96 920.479 267.04 877.759 268.44C839.999 269.68 800.639 272.52 762.559 275.28C729.759 277.64 698.719 279.88 670.399 281.04C577.599 284.76 477.759 286.96 356.479 288.08C267.039 288.88 177.919 289.28 89.9192 289.28C-46.5608 289.28 -180.641 288.32 -311.201 286.4C-268.161 291.84 -223.681 295.72 -175.361 298.32C-132.001 300.64 -86.5608 301.84 -36.3208 302C57.1192 302.32 153.119 298.88 245.919 295.56C287.039 294.08 329.599 292.56 371.359 291.4C416.799 290.12 463.519 289.28 508.639 288.48C568.799 287.4 630.879 286.28 691.039 284.12C716.159 283.2 741.119 281.8 765.279 280.44C800.959 278.44 834.719 276.56 869.439 276.04C875.199 275.96 880.639 275.92 885.919 275.92Z" fill="#CFCFCF"/>
<path d="M1284.96 322.92C1262.24 322.92 1239.52 322.64 1216.96 322.04C1169.28 320.8 1124 318.24 1082.56 314.48C1038.4 310.48 999.202 305.12 965.922 298.6C955.202 296.52 946.882 294.04 938.882 291.68C925.122 287.6 912.162 283.76 888.962 282.2C856.162 279.96 807.682 282.68 764.962 285.04C747.362 286 730.882 286.96 716.962 287.44C595.202 291.72 472.322 295.6 351.842 298.96C232.002 302.32 109.122 305.32 -13.1181 307.92C-21.4381 308.08 -30.0781 308.28 -38.3981 308.48C-87.0381 309.6 -137.438 310.76 -185.278 309.2C-239.838 307.44 -281.758 302.36 -313.758 293.64L-314.078 293.56H-313.598C-215.998 296.16 -112.478 297.44 2.56195 297.44C5.44196 297.44 8.16196 297.44 11.042 297.44C125.282 297.36 239.362 296.08 335.842 294.84C463.202 293.2 569.922 291.28 677.122 287.32C703.682 286.36 729.122 284.8 753.602 283.32C791.682 281.04 827.522 278.84 862.082 279.16C900.642 279.48 932.642 282.84 962.882 289.72C1035.68 306.36 1122.08 316.16 1219.52 318.8C1307.52 321.2 1403.68 317.88 1505.44 308.84C1542.08 305.6 1576.48 301.48 1609.6 297.52C1669.28 290.36 1725.76 283.6 1794.4 281.52C1802.88 281.28 1827.04 281.24 1864.16 281.4C1898.56 281.56 1940.8 281.92 1983.04 282.4C2061.44 283.28 2146.4 284.6 2149.92 285.76C2150.08 285.84 2150.08 285.88 2150.08 285.92V285.96H2149.92C2097.28 286.84 2042.4 286.08 1989.44 285.32C1920.96 284.36 1850.08 283.36 1782.88 285.92C1717.44 288.4 1657.76 295.6 1599.84 302.6C1563.2 307.04 1525.28 311.6 1486.08 314.96C1424.16 320.2 1354.72 322.92 1284.96 322.92ZM860.162 281.28C870.562 281.28 880.322 281.52 888.962 282.12C912.322 283.72 925.442 287.56 939.042 291.64C947.042 294 955.362 296.44 965.922 298.56C999.202 305.08 1038.4 310.4 1082.56 314.4C1124.16 318.16 1169.28 320.72 1216.96 321.96C1308.32 324.36 1403.84 321.84 1485.76 314.84C1524.8 311.52 1562.72 306.92 1599.36 302.48C1657.12 295.48 1716.96 288.28 1782.4 285.8C1849.6 283.24 1920.48 284.24 1988.96 285.2C2041.92 285.96 2096.64 286.72 2149.28 285.84V285.8C2146.4 284.88 2081.12 283.56 1982.72 282.48C1905.28 281.64 1812.8 281.04 1794.08 281.6C1725.28 283.68 1668.96 290.44 1609.28 297.6C1576.16 301.56 1541.92 305.68 1505.12 308.96C1403.36 318 1307.04 321.36 1219.04 318.92C1121.44 316.24 1035.04 306.44 962.242 289.8C932.162 282.92 900.162 279.56 861.762 279.24C827.202 278.96 791.362 281.12 753.442 283.4C728.962 284.88 703.522 286.4 676.962 287.4C569.762 291.32 463.042 293.24 335.682 294.92C239.202 296.16 125.122 297.48 10.8819 297.52C-107.518 297.6 -213.598 296.32 -313.278 293.68C-281.438 302.32 -239.518 307.4 -185.278 309.16C-137.438 310.72 -87.1981 309.56 -38.5581 308.44C-30.2381 308.24 -21.5981 308.04 -13.2781 307.88C108.962 305.32 231.842 302.28 351.682 298.92C472.162 295.56 595.042 291.64 716.802 287.4C730.722 286.92 747.202 286 764.802 285C796.322 283.2 831.042 281.28 860.162 281.28Z" fill="#CFCFCF"/>
<path d="M1309.28 334C1277.28 334 1244.16 333.4 1209.92 332.16C1158.4 330.32 1107.52 327.16 1058.72 322.8C1011.04 318.52 966.723 313.16 930.563 307.28C904.003 302.92 880.643 299.84 859.203 297.76C838.243 295.76 817.923 294.64 796.803 294.32C756.323 293.76 714.723 296.08 650.403 299.96C599.043 303.04 546.243 305.12 488.963 306.24C456.803 306.88 423.043 307.24 384.163 307.4C342.243 308.2 298.243 308.68 251.523 308.8C224.643 309.6 194.563 310.72 162.243 311.88C71.683 315.16 -31.037 318.92 -120.957 318.76C-170.077 318.68 -209.597 317.44 -241.437 315C-259.037 313.64 -274.237 311.92 -286.877 309.84C-300.157 307.64 -310.877 305 -318.717 301.96L-318.877 301.88H-318.557C-250.557 302.6 -181.757 303.76 -115.197 304.92C-29.437 306.36 59.2031 307.88 146.403 308.44C183.043 308.68 217.923 308.76 251.523 308.68C280.643 307.8 305.603 307.24 325.283 307.28C346.403 307.32 365.923 307.32 384.323 307.24C392.643 307.08 400.963 306.92 409.123 306.72C471.843 305.28 535.523 301.2 597.123 297.24C664.163 292.92 733.443 288.48 800.643 287.56C829.923 287.16 854.083 288.28 876.643 291.08C896.803 293.6 913.443 297.16 930.883 300.96C946.243 304.28 962.083 307.68 981.763 310.76C1014.24 315.8 1055.36 319.76 1104.16 322.44C1149.28 324.96 1198.88 326.32 1251.52 326.48C1353.44 326.84 1454.4 322.56 1521.28 315.08C1544.48 312.48 1566.72 309.72 1588.16 307.08C1652.8 299.08 1713.76 291.52 1791.36 289.4C1813.12 288.8 1898.08 287.16 1978.4 287.16C1978.4 287.16 1978.4 287.16 1978.56 287.16C2024.48 287.16 2061.44 287.68 2088.16 288.76C2120.96 290.04 2138.56 292.12 2140.48 294.92V294.96H2140.32C2093.6 295.04 2044 293.76 1995.84 292.52C1915.36 290.44 1832 288.28 1756.48 292.28C1694.08 295.6 1640.16 303.88 1588.16 311.92C1560 316.24 1530.88 320.76 1500.8 324.4C1461.92 329.12 1415.84 332.12 1364 333.36C1346.24 333.8 1327.84 334 1309.28 334ZM784.643 294.16C788.803 294.16 792.803 294.2 796.963 294.24C818.083 294.52 838.403 295.64 859.523 297.68C880.963 299.72 904.323 302.84 930.883 307.2C967.043 313.08 1011.2 318.44 1058.88 322.72C1107.68 327.08 1158.4 330.24 1209.92 332.08C1264 334.04 1315.84 334.44 1364 333.28C1415.84 332.04 1461.92 329.04 1500.8 324.32C1530.88 320.68 1560 316.2 1588.16 311.84C1640.32 303.8 1694.24 295.52 1756.64 292.2C1832.32 288.2 1915.68 290.36 1996.16 292.44C2044.16 293.68 2093.92 294.96 2140.48 294.88C2138.4 292.12 2120.8 290.08 2088.32 288.84C2061.6 287.8 2024.64 287.24 1978.72 287.24C1978.72 287.24 1978.72 287.24 1978.56 287.24C1898.24 287.24 1813.44 288.88 1791.52 289.48C1713.92 291.6 1652.96 299.16 1588.32 307.16C1566.88 309.84 1544.64 312.56 1521.44 315.16C1456.96 322.36 1361.12 326.6 1263.04 326.6C1259.2 326.6 1255.36 326.6 1251.52 326.6C1198.88 326.44 1149.28 325.04 1104 322.56C1055.2 319.84 1013.92 315.92 981.443 310.84C961.603 307.76 945.763 304.36 930.563 301.04C912.963 297.24 896.483 293.68 876.323 291.2C853.923 288.4 829.763 287.28 800.483 287.68C733.283 288.6 664.003 293.08 596.963 297.36C535.363 301.32 471.683 305.4 408.963 306.84C402.403 307 395.683 307.12 389.123 307.28C425.923 307.12 458.083 306.76 488.803 306.16C546.083 305 598.883 302.96 650.243 299.88C708.483 296.4 747.843 294.16 784.643 294.16ZM-318.077 302.04C-310.397 305.04 -299.677 307.68 -286.557 309.84C-274.077 311.92 -258.717 313.64 -241.277 314.96C-209.437 317.4 -169.917 318.6 -120.797 318.72C-30.877 318.88 71.843 315.12 162.403 311.84C193.603 310.72 222.723 309.64 248.963 308.84C216.323 308.92 182.243 308.84 146.723 308.6C59.523 308 -29.277 306.52 -114.877 305.08C-181.597 303.92 -250.237 302.76 -318.077 302.04ZM323.203 307.44C304.643 307.44 281.443 307.96 254.563 308.76C298.403 308.64 339.683 308.2 379.203 307.44C362.243 307.48 344.483 307.48 325.283 307.44C324.643 307.44 324.003 307.44 323.203 307.44Z" fill="#CFCFCF"/>
<path d="M1262.24 340.52C1229.92 340.52 1196 339.96 1160.96 338.84C1111.2 337.24 1061.12 334.52 1011.84 330.84C964.642 327.28 920.962 323 881.922 318.12C790.242 306.6 689.122 304.6 586.082 305.96C559.682 307.88 534.402 309.56 508.802 310.88C466.082 313.08 427.362 314 387.042 313.8C361.762 313.68 336.162 313.6 310.722 313.56C296.802 313.92 283.042 314.24 269.282 314.52C255.202 314.8 228.802 315.76 195.202 316.96C105.762 320.16 -36.9582 325.32 -150.878 325.32C-244.318 325.32 -318.558 321.88 -328.158 311.08V311.04H-327.998C-175.678 314.52 -18.8782 314.12 132.642 313.72C191.202 313.56 251.042 313.44 310.722 313.48C342.082 312.64 373.922 311.6 407.042 310.56C466.402 308.64 526.562 306.68 586.082 305.88C599.522 304.92 613.122 303.88 627.202 302.8C681.282 298.68 723.522 297.72 764.162 299.6C805.282 301.52 843.842 306.36 889.282 313.04C927.682 318.68 972.962 323.48 1023.68 327.28C1073.76 331.04 1126.4 333.6 1180.32 334.92C1294.88 337.72 1401.6 334.48 1480.96 325.72C1501.12 323.52 1520.64 321.24 1539.52 319.08C1572.8 315.24 1604.48 311.56 1637.12 308.4C1641.76 307.88 1646.24 307.36 1650.88 306.88C1687.52 303 1722.08 300.68 1756.64 299.8C1757.92 299.76 1759.04 299.72 1760.32 299.72C1768.16 299.4 1776 299.12 1783.84 298.88C1791.84 298.64 1801.76 298.32 1813.12 297.92C1858.72 296.4 1927.52 294.08 1990.72 294.04C2025.44 294 2054.72 294.68 2077.6 296.04C2104.48 297.64 2123.36 300.24 2133.76 303.76L2133.92 303.84H2133.6C2080.96 303.96 2027.52 302.68 1975.68 301.44C1904.96 299.76 1832 298.04 1760.32 299.76C1726.24 301.16 1692.8 303.36 1656.64 306.64C1650.08 307.24 1643.68 307.84 1637.28 308.48C1609.44 311.68 1582.4 315.44 1556 319.12C1522.4 323.8 1487.68 328.64 1450.4 332.44C1397.44 337.76 1333.6 340.52 1262.24 340.52ZM640.482 305.48C724.642 305.48 806.562 308.52 882.242 318C920.642 322.84 965.602 327.24 1012.16 330.72C1061.28 334.44 1111.36 337.12 1161.12 338.72C1273.44 342.36 1373.44 340.12 1450.24 332.28C1487.52 328.48 1522.24 323.64 1555.84 318.96C1580.64 315.52 1606.08 311.96 1632.16 308.92C1601.28 312 1571.2 315.48 1539.68 319.12C1520.8 321.32 1501.28 323.56 1481.12 325.76C1401.76 334.48 1294.88 337.76 1180.32 334.96C1126.56 333.64 1073.76 331.08 1023.68 327.32C972.962 323.52 927.682 318.72 889.282 313.08C843.842 306.4 805.282 301.56 764.162 299.64C723.522 297.72 681.282 298.72 627.362 302.84C613.762 303.88 600.482 304.88 587.522 305.84C605.282 305.6 622.882 305.48 640.482 305.48ZM-327.838 311.08C-325.278 313.92 -317.918 316.36 -306.078 318.36C-294.878 320.24 -279.518 321.72 -260.158 322.84C-226.078 324.76 -178.718 325.56 -119.358 325.12C-11.5182 324.32 112.802 319.84 195.202 316.88C228.802 315.68 255.202 314.72 269.282 314.44C282.082 314.2 294.882 313.88 307.842 313.56C249.122 313.48 190.242 313.64 132.802 313.8C-18.8782 314.12 -175.518 314.52 -327.838 311.08ZM313.602 313.44C338.242 313.48 362.722 313.56 387.202 313.68C427.522 313.88 466.242 312.96 508.962 310.76C534.082 309.48 559.042 307.8 584.962 305.96C525.922 306.76 466.242 308.72 407.202 310.6C375.042 311.64 344.002 312.64 313.602 313.44ZM1755.36 299.84C1721.28 300.76 1687.2 303.08 1651.04 306.88C1648.16 307.2 1645.28 307.48 1642.56 307.8C1647.2 307.36 1651.84 306.92 1656.64 306.48C1691.04 303.4 1723.04 301.24 1755.36 299.84ZM1823.68 298.92C1874.72 298.92 1925.76 300.12 1975.68 301.32C2027.36 302.56 2080.8 303.8 2133.28 303.72C2122.88 300.24 2104.16 297.68 2077.6 296.12C2054.72 294.76 2025.6 294.08 1990.88 294.12C1927.68 294.16 1858.88 296.48 1813.28 298C1801.76 298.4 1791.84 298.72 1784 298.96C1777.76 299.16 1771.52 299.36 1765.28 299.6C1784.64 299.08 1804.16 298.92 1823.68 298.92Z" fill="#CFCFCF"/>
</g>
</svg>
